<svg width="295" height="63" viewBox="0 0 295 63" fill="none" xmlns="http://www.w3.org/2000/svg">
<circle cx="22.5" cy="36.5" r="22.5" fill="#AC2727"/>
<path d="M23.0417 52.625C20.625 52.625 18.5694 52.3056 16.875 51.6667C15.1806 51 13.7917 50.125 12.7083 49.0417C11.625 47.9306 10.8194 46.7083 10.2917 45.375C9.76389 44.0417 9.45833 42.6944 9.375 41.3333H15.3333C15.4167 42.3889 15.75 43.4167 16.3333 44.4167C16.9167 45.3889 17.7778 46.1944 18.9167 46.8333C20.0833 47.4444 21.5278 47.75 23.25 47.75C25.1389 47.75 26.5556 47.3611 27.5 46.5833C28.4722 45.8056 28.9583 44.7639 28.9583 43.4583C28.9583 42.1806 28.5278 41.1667 27.6667 40.4167C26.8056 39.6667 25.6806 39.0556 24.2917 38.5833L20 37.1667C18.4722 36.6389 17.0139 36.0139 15.625 35.2917C14.2361 34.5694 13.0972 33.6111 12.2083 32.4167C11.3194 31.2222 10.875 29.6806 10.875 27.7917C10.875 25.875 11.3472 24.2639 12.2917 22.9583C13.2639 21.625 14.5972 20.6111 16.2917 19.9167C17.9861 19.2222 19.9306 18.875 22.125 18.875C24.9306 18.875 27.1667 19.3611 28.8333 20.3333C30.5 21.2778 31.7222 22.4861 32.5 23.9583C33.2778 25.4306 33.7361 27 33.875 28.6667H27.9167C27.8333 27.8333 27.5833 27.0417 27.1667 26.2917C26.7778 25.5139 26.1528 24.8889 25.2917 24.4167C24.4583 23.9167 23.3194 23.6667 21.875 23.6667C20.2917 23.6667 19.0833 24.0139 18.25 24.7083C17.4444 25.375 17.0417 26.25 17.0417 27.3333C17.0417 28.5278 17.4722 29.4722 18.3333 30.1667C19.2222 30.8333 20.375 31.4028 21.7917 31.875L26.0833 33.3333C27.6389 33.8333 29.0972 34.4583 30.4583 35.2083C31.8194 35.9306 32.9306 36.9028 33.7917 38.125C34.6806 39.3472 35.125 40.9583 35.125 42.9583C35.125 45.9861 34.0556 48.3611 31.9167 50.0833C29.8056 51.7778 26.8472 52.625 23.0417 52.625ZM53.7148 52C53.076 51.25 52.5621 50.3472 52.1732 49.2917C51.8121 48.2361 51.6315 46.6528 51.6315 44.5417V31.4167H48.2148V27H51.7148V20.75H57.7565V27H61.8398V31.4167H57.7982V43.8333C57.7982 46.0556 58.0343 47.75 58.5065 48.9167C59.0065 50.0556 59.6037 51 60.2982 51.75V52H53.7148ZM66.2448 52V27H71.8698V31.5H72.8698C73.0365 30.6944 73.342 29.9306 73.7865 29.2083C74.2309 28.4861 74.9253 27.9028 75.8698 27.4583C76.8142 26.9861 78.0781 26.75 79.6615 26.75H80.8698V32.375H79.2031C76.8142 32.375 75.0781 32.9861 73.9948 34.2083C72.9392 35.4306 72.4115 37.2778 72.4115 39.75V52H66.2448ZM94.4147 52.625C90.5536 52.625 87.6092 51.4444 85.5814 49.0833C83.5536 46.6944 82.5397 43.4861 82.5397 39.4583C82.5397 36.7639 82.9842 34.4444 83.873 32.5C84.7897 30.5556 86.123 29.0556 87.873 28C89.6508 26.9167 91.8036 26.375 94.3314 26.375C97.998 26.375 100.79 27.5 102.706 29.75C104.651 31.9722 105.623 35.25 105.623 39.5833V40.9583H88.5397C88.6786 43.1806 89.248 44.9444 90.248 46.25C91.248 47.5278 92.6369 48.1667 94.4147 48.1667C95.8036 48.1667 96.9147 47.7639 97.748 46.9583C98.5814 46.1528 99.1508 45.1667 99.4564 44H105.331C105.054 45.5833 104.484 47.0278 103.623 48.3333C102.762 49.6111 101.567 50.6528 100.04 51.4583C98.5397 52.2361 96.6647 52.625 94.4147 52.625ZM88.5814 37H99.623C99.5119 34.9722 98.998 33.4028 98.0814 32.2917C97.1925 31.1806 95.9286 30.625 94.2897 30.625C92.6508 30.625 91.3453 31.1667 90.373 32.25C89.4008 33.3056 88.8036 34.8889 88.5814 37ZM118.69 52.5417C116.412 52.5417 114.523 51.9861 113.023 50.875C111.523 49.7639 110.398 48.2222 109.648 46.25C108.926 44.2778 108.565 42.0139 108.565 39.4583C108.565 36.8472 108.94 34.5694 109.69 32.625C110.44 30.6806 111.565 29.1667 113.065 28.0833C114.565 27 116.44 26.4583 118.69 26.4583C120.468 26.4583 121.912 26.8194 123.023 27.5417C124.162 28.2361 125.01 29.1389 125.565 30.25H126.565V27H132.232V52H126.565V48.75H125.565C125.01 49.7778 124.176 50.6667 123.065 51.4167C121.954 52.1667 120.496 52.5417 118.69 52.5417ZM120.19 48.0417C121.996 48.0417 123.426 47.2778 124.482 45.75C125.565 44.1944 126.107 42.1111 126.107 39.5C126.107 36.8889 125.565 34.8194 124.482 33.2917C123.426 31.7361 121.996 30.9583 120.19 30.9583C118.551 30.9583 117.26 31.6806 116.315 33.125C115.398 34.5694 114.94 36.6944 114.94 39.5C114.94 42.3056 115.398 44.4306 116.315 45.875C117.26 47.3194 118.551 48.0417 120.19 48.0417ZM138.65 52V27H144.316V30.75H145.316C145.789 29.5 146.539 28.4583 147.566 27.625C148.622 26.7917 150.094 26.375 151.983 26.375C153.705 26.375 155.136 26.7639 156.275 27.5417C157.441 28.3194 158.316 29.3889 158.9 30.75H159.9C160.4 29.4722 161.191 28.4306 162.275 27.625C163.358 26.7917 164.816 26.375 166.65 26.375C169.372 26.375 171.386 27.2639 172.691 29.0417C173.997 30.7917 174.65 33.1389 174.65 36.0833V52H168.483V37.1667C168.483 35.3611 168.178 33.9583 167.566 32.9583C166.983 31.9583 166.025 31.4583 164.691 31.4583C163.08 31.4583 161.844 32.1389 160.983 33.5C160.15 34.8611 159.733 36.5278 159.733 38.5V52H153.566V37.1667C153.566 35.3611 153.261 33.9583 152.65 32.9583C152.066 31.9583 151.122 31.4583 149.816 31.4583C148.205 31.4583 146.969 32.1389 146.108 33.5C145.247 34.8611 144.816 36.5278 144.816 38.5V52H138.65ZM194.406 52.5417C192.545 52.5417 191.045 52.1667 189.906 51.4167C188.795 50.6667 187.962 49.7778 187.406 48.75H186.406V52H180.74V18.6667H186.906V29.8333H187.906C188.517 28.8056 189.351 27.9861 190.406 27.375C191.462 26.7639 192.809 26.4583 194.448 26.4583C196.642 26.4583 198.476 27 199.948 28.0833C201.448 29.1667 202.573 30.6806 203.323 32.625C204.073 34.5694 204.448 36.8472 204.448 39.4583C204.448 42.0139 204.073 44.2778 203.323 46.25C202.573 48.2222 201.462 49.7639 199.99 50.875C198.517 51.9861 196.656 52.5417 194.406 52.5417ZM192.781 48.0417C194.448 48.0417 195.74 47.3194 196.656 45.875C197.573 44.4306 198.031 42.3056 198.031 39.5C198.031 36.6944 197.573 34.5694 196.656 33.125C195.74 31.6806 194.448 30.9583 192.781 30.9583C190.976 30.9583 189.545 31.7361 188.49 33.2917C187.434 34.8194 186.906 36.8889 186.906 39.5C186.906 42.1111 187.434 44.1944 188.49 45.75C189.545 47.2778 190.976 48.0417 192.781 48.0417ZM219.366 52.625C215.505 52.625 212.56 51.4444 210.533 49.0833C208.505 46.6944 207.491 43.4861 207.491 39.4583C207.491 36.7639 207.935 34.4444 208.824 32.5C209.741 30.5556 211.074 29.0556 212.824 28C214.602 26.9167 216.755 26.375 219.283 26.375C222.949 26.375 225.741 27.5 227.658 29.75C229.602 31.9722 230.574 35.25 230.574 39.5833V40.9583H213.491C213.63 43.1806 214.199 44.9444 215.199 46.25C216.199 47.5278 217.588 48.1667 219.366 48.1667C220.755 48.1667 221.866 47.7639 222.699 46.9583C223.533 46.1528 224.102 45.1667 224.408 44H230.283C230.005 45.5833 229.435 47.0278 228.574 48.3333C227.713 49.6111 226.519 50.6528 224.991 51.4583C223.491 52.2361 221.616 52.625 219.366 52.625ZM213.533 37H224.574C224.463 34.9722 223.949 33.4028 223.033 32.2917C222.144 31.1806 220.88 30.625 219.241 30.625C217.602 30.625 216.296 31.1667 215.324 32.25C214.352 33.3056 213.755 34.8889 213.533 37ZM235.141 52V27H240.766V31.5H241.766C241.933 30.6944 242.238 29.9306 242.683 29.2083C243.127 28.4861 243.822 27.9028 244.766 27.4583C245.711 26.9861 246.975 26.75 248.558 26.75H249.766V32.375H248.1C245.711 32.375 243.975 32.9861 242.891 34.2083C241.836 35.4306 241.308 37.2778 241.308 39.75V52H235.141ZM254.184 52V27H259.809V31.5H260.809C260.976 30.6944 261.281 29.9306 261.726 29.2083C262.17 28.4861 262.865 27.9028 263.809 27.4583C264.754 26.9861 266.018 26.75 267.601 26.75H268.809V32.375H267.143C264.754 32.375 263.018 32.9861 261.934 34.2083C260.879 35.4306 260.351 37.2778 260.351 39.75V52H254.184ZM274.727 60.3333V60.2083C275.449 59.0417 276.227 57.6806 277.061 56.125C277.894 54.5972 278.63 53.1111 279.269 51.6667L270.561 27.25V27H276.686L279.811 35.75C280.172 36.8333 280.533 37.9861 280.894 39.2083C281.283 40.4306 281.672 41.9583 282.061 43.7917H283.061C283.449 41.9583 283.824 40.4306 284.186 39.2083C284.574 37.9861 284.963 36.8333 285.352 35.75L288.477 27H294.227V27.25L286.352 48.875C285.38 51.5417 284.436 53.8472 283.519 55.7917C282.602 57.7361 281.824 59.25 281.186 60.3333H274.727Z" fill="white"/>
</svg>
